<?xml version="1.0" encoding="UTF-8"?><svg id="Layer_2" xmlns="http://www.w3.org/2000/svg" viewBox="0 0 1865.39 576.01"><defs><style>.cls-1{fill:#343434;stroke-width:0px;}</style></defs><g id="Layer_1-2"><path class="cls-1" d="m0,135.6h86.4v67.8l67.26-67.8h31.78s29.36,45.6,29.36,45.6l-128.4,129v133.8H0V135.6Z"/><path class="cls-1" d="m294.6,433.2l-115.2-297.6h89.4l70.2,195.6,69-195.6h84l-168,440.4h-84l54.6-142.8Z"/><path class="cls-1" d="m449.4,360.6c0-43.8,24.6-75.6,80.4-93.6l85.8-27.6c-13.2-17.4-34.8-27-62.4-27h-90.76l24.16-76.8h66.6c93.6,0,156.6,61.8,156.6,154.2v154.2h-79.2v-32.4c-22.2,24-52.8,38.4-88.2,38.4-52.8,0-93-38.4-93-89.4Zm113.4,20.4c38.4,0,67.8-30,67.8-68.4v-8.4l-77.4,25.2c-13.8,4.8-22.2,12-22.2,25.2,0,15.6,12.6,26.4,31.8,26.4Z"/><path class="cls-1" d="m739.2,135.6h84v25.2c40.2-27,61.2-31.2,87-31.2,58.2,0,106.2,41.4,106.2,106.2v208.2h-86.4v-198c0-22.2-15.6-37.2-34.8-37.2-15,0-26.4,3-69.6,37.2v198h-86.4V135.6Z"/><path class="cls-1" d="m1051.94,415.95c0-18.75,14.7-33.45,33.45-33.45s33.45,14.7,33.45,33.45-14.34,33.45-33.45,33.45-33.45-14.7-33.45-33.45Z"/><path class="cls-1" d="m1164,444v-231.6h-57.6v-76.8h57.6v-10.2c0-71.4,58.8-125.4,137.4-125.4,37.8,0,71.4,13.2,95.4,34.8l-57.6,57.6c-9-10.2-22.8-16.2-37.8-16.2-29.4,0-51,21-51,49.2v10.2h85.2v76.8h-85.2v231.6h-86.4Z"/><path class="cls-1" d="m1297.39,360.6c0-43.8,24.6-75.6,80.4-93.6l85.8-27.6c-13.2-17.4-34.8-27-62.4-27h-66.6v-76.8h66.6c93.6,0,156.6,61.8,156.6,154.2v154.2h-79.2v-32.4c-22.2,24-52.8,38.4-88.2,38.4-52.8,0-93-38.4-93-89.4Zm114.4,20.4c38.4,0,67.8-30,67.8-68.4v-8.4l-77.4,25.2c-13.8,4.8-22.2,12-22.2,25.2,0,15.6,12.6,26.4,31.8,26.4Z"/><path class="cls-1" d="m1588.19,135.6h84v25.2c40.2-27,61.2-31.2,87-31.2,58.2,0,106.2,41.4,106.2,106.2v208.2h-86.4v-198c0-22.2-15.6-37.2-34.8-37.2-15,0-26.4,3-69.6,37.2v198h-86.4V135.6Z"/></g></svg>