<svg width="577" height="1866" viewBox="0 0 577 1866" fill="none" xmlns="http://www.w3.org/2000/svg">
<g clip-path="url(#clip0_1295_1550)">
<path d="M136.291 1865.7L136.291 1779.3L204.091 1779.3L136.291 1712.04L136.291 1680.26L181.891 1650.9L310.891 1779.3L444.691 1779.3L444.691 1865.7L136.291 1865.7Z" fill="white"/>
<path d="M433.891 1571.1L136.291 1686.3L136.291 1596.9L331.891 1526.7L136.291 1457.7L136.291 1373.7L576.691 1541.7L576.691 1625.7L433.891 1571.1Z" fill="white"/>
<path d="M361.291 1416.3C317.491 1416.3 285.691 1391.7 267.691 1335.9L240.091 1250.1C222.691 1263.3 213.091 1284.9 213.091 1312.5L213.091 1403.26L136.291 1379.1L136.291 1312.5C136.291 1218.9 198.091 1155.9 290.491 1155.9L444.691 1155.9L444.691 1235.1L412.291 1235.1C436.291 1257.3 450.691 1287.9 450.691 1323.3C450.691 1376.1 412.291 1416.3 361.291 1416.3ZM381.691 1302.9C381.691 1264.5 351.691 1235.1 313.291 1235.1L304.891 1235.1L330.091 1312.5C334.891 1326.3 342.091 1334.7 355.291 1334.7C370.891 1334.7 381.691 1322.1 381.691 1302.9Z" fill="white"/>
<path d="M136.291 1126.5L136.291 1042.5L161.491 1042.5C134.491 1002.3 130.291 981.3 130.291 955.5C130.291 897.3 171.691 849.3 236.491 849.3L444.691 849.3L444.691 935.7L246.691 935.7C224.491 935.7 209.491 951.3 209.491 970.5C209.491 985.5 212.491 996.9 246.691 1040.1L444.691 1040.1L444.691 1126.5L136.291 1126.5Z" fill="white"/>
<path d="M416.641 813.76C397.891 813.76 383.191 799.06 383.191 780.31C383.191 761.56 397.891 746.86 416.641 746.86C435.391 746.86 450.091 761.2 450.091 780.31C450.091 799.42 435.391 813.76 416.641 813.76Z" fill="white"/>
<path d="M444.691 701.699L213.091 701.699L213.091 759.299L136.291 759.299L136.291 701.699L126.091 701.699C54.6914 701.699 0.691401 642.899 0.691398 564.299C0.691396 526.499 13.8914 492.899 35.4914 468.899L93.0914 526.499C82.8914 535.499 76.8914 549.299 76.8914 564.299C76.8914 593.699 97.8914 615.299 126.091 615.299L136.291 615.299L136.291 530.099L213.091 530.099L213.091 615.299L444.691 615.299L444.691 701.699Z" fill="white"/>
<path d="M361.291 568.309C317.491 568.309 285.691 543.709 267.691 487.909L240.091 402.109C222.691 415.309 213.091 436.909 213.091 464.509L213.091 531.109L136.291 531.109L136.291 464.509C136.291 370.909 198.091 307.909 290.491 307.909L444.691 307.909L444.691 387.109L412.291 387.109C436.291 409.309 450.691 439.909 450.691 475.309C450.691 528.109 412.291 568.309 361.291 568.309ZM381.691 453.909C381.691 415.509 351.691 386.109 313.291 386.109L304.891 386.109L330.091 463.509C334.891 477.309 342.091 485.709 355.291 485.709C370.891 485.709 381.691 473.109 381.691 453.909Z" fill="white"/>
<path d="M136.291 277.51L136.291 193.51L161.491 193.51C134.491 153.31 130.291 132.31 130.291 106.51C130.291 48.3098 171.691 0.309691 236.491 0.309688L444.691 0.309679L444.691 86.7097L246.691 86.7097C224.491 86.7097 209.491 102.31 209.491 121.51C209.491 136.51 212.491 147.91 246.691 191.11L444.691 191.11L444.691 277.51L136.291 277.51Z" fill="white"/>
</g>
<defs>
<clipPath id="clip0_1295_1550">
<rect width="1865.39" height="576.01" fill="white" transform="translate(0.691406 1865.7) rotate(-90)"/>
</clipPath>
</defs>
</svg>
