<svg width="167" height="155" viewBox="0 0 167 155" fill="none" xmlns="http://www.w3.org/2000/svg">
<path d="M14.4715 66.5334C6.96195 88.0316 16.485 107.576 31.2342 121.804C45.2954 133.122 57.0203 134.437 65.3659 136.525C87.1678 141.981 114.596 141.986 133.257 126.024C167.455 96.7729 154.826 35.1382 108.724 20.4236C66.204 6.85244 27.0927 30.4015 14.4715 66.5334Z" fill="white" stroke="#0000FF" stroke-width="10" stroke-linecap="round"/>
<path d="M66.9945 61.84C68.2038 58.061 70.0458 60.6196 69.9145 60.7414C69.1641 61.4377 68.685 60.9877 68.2937 60.2994" stroke="#0000FF" stroke-width="10" stroke-linecap="round"/>
<path d="M105.805 71.5705C107.014 67.7914 108.856 70.3501 108.725 70.4719C107.975 71.1682 107.496 70.7181 107.104 70.0299" stroke="#0000FF" stroke-width="10" stroke-linecap="round"/>
<path d="M48.2988 86.3594C55.9232 98.0197 66.5194 103.987 79.4596 107.187C87.8243 109.255 102.236 108.303 108.907 102.008" stroke="#0000FF" stroke-width="10" stroke-linecap="round"/>
</svg>
